<svg width="24" height="24" viewBox="0 0 24 24" fill="none" xmlns="http://www.w3.org/2000/svg">
<path d="M1.2 4H22.8C23.1183 4 23.4235 3.78929 23.6485 3.41421C23.8736 3.03914 24 2.53043 24 2C24 1.46957 23.8736 0.96086 23.6485 0.585787C23.4235 0.210714 23.1183 0 22.8 0H1.2C0.88174 0 0.576515 0.210714 0.351472 0.585787C0.126428 0.96086 0 1.46957 0 2C0 2.53043 0.126428 3.03914 0.351472 3.41421C0.576515 3.78929 0.88174 4 1.2 4ZM22.8 20H1.2C0.88174 20 0.576515 20.2107 0.351472 20.5858C0.126428 20.9609 0 21.4696 0 22C0 22.5304 0.126428 23.0391 0.351472 23.4142C0.576515 23.7893 0.88174 24 1.2 24H22.8C23.1183 24 23.4235 23.7893 23.6485 23.4142C23.8736 23.0391 24 22.5304 24 22C24 21.4696 23.8736 20.9609 23.6485 20.5858C23.4235 20.2107 23.1183 20 22.8 20ZM22.8 10H1.2C0.88174 10 0.576515 10.2107 0.351472 10.5858C0.126428 10.9609 0 11.4696 0 12C0 12.5304 0.126428 13.0391 0.351472 13.4142C0.576515 13.7893 0.88174 14 1.2 14H22.8C23.1183 14 23.4235 13.7893 23.6485 13.4142C23.8736 13.0391 24 12.5304 24 12C24 11.4696 23.8736 10.9609 23.6485 10.5858C23.4235 10.2107 23.1183 10 22.8 10Z" fill="#B4111A"/>
</svg>
