<svg width="30" height="26" viewBox="0 0 30 26" fill="none" xmlns="http://www.w3.org/2000/svg">
<path d="M10.3845 11.8463H6.34603C5.86523 11.8463 5.45648 11.6781 5.11991 11.3415C4.78352 11.0049 4.61511 10.5963 4.61511 10.1154V9.53871C4.61511 8.26459 5.06592 7.17695 5.96747 6.2754C6.86896 5.37416 7.95679 4.92335 9.23078 4.92335H10.3845C10.697 4.92335 10.9673 4.80912 11.1958 4.58084C11.4241 4.35244 11.5383 4.08211 11.5383 3.76959V1.46169C11.5383 1.14924 11.4241 0.878653 11.1958 0.65025C10.9674 0.422162 10.6971 0.307739 10.3845 0.307739H9.23078C7.98066 0.307739 6.788 0.551361 5.65205 1.03791C4.51622 1.52477 3.53378 2.18289 2.70434 3.01233C1.87496 3.84139 1.21703 4.8239 0.730233 5.95985C0.243432 7.09568 0 8.28865 0 9.53865V22.2307C0 23.1927 0.336385 24.0096 1.00947 24.6829C1.68262 25.3559 2.50012 25.6923 3.4616 25.6923H10.385C11.3464 25.6923 12.1637 25.3559 12.8369 24.6829C13.5098 24.0096 13.8464 23.1927 13.8464 22.2307V15.3079C13.8464 14.346 13.5098 13.5292 12.8364 12.8558C12.1635 12.1829 11.346 11.8463 10.3845 11.8463Z" fill="#B4111A"/>
<path d="M28.991 12.8558C28.3181 12.1829 27.5008 11.8463 26.5392 11.8463H22.5007C22.0202 11.8463 21.611 11.6781 21.275 11.3415C20.9383 11.0049 20.7702 10.5963 20.7702 10.1154V9.53871C20.7702 8.26459 21.221 7.17695 22.1221 6.2754C23.0233 5.37416 24.1111 4.92335 25.3857 4.92335H26.5392C26.8517 4.92335 27.1223 4.80912 27.3505 4.58084C27.5787 4.35244 27.6933 4.08211 27.6933 3.76959V1.46169C27.6933 1.14924 27.5787 0.878653 27.3505 0.65025C27.1223 0.422162 26.8518 0.307739 26.5392 0.307739H25.3857C24.1349 0.307739 22.9425 0.551361 21.8062 1.03791C20.6706 1.52477 19.6885 2.18289 18.859 3.01233C18.0296 3.84139 17.3713 4.8239 16.8847 5.95985C16.398 7.09568 16.1543 8.28865 16.1543 9.53865V22.2307C16.1543 23.1927 16.491 24.0096 17.1639 24.6829C17.8369 25.3559 18.6542 25.6923 19.6158 25.6923H26.5388C27.5004 25.6923 28.3177 25.3559 28.9906 24.6829C29.664 24.0096 30 23.1927 30 22.2307V15.3079C30.0001 14.346 29.664 13.5292 28.991 12.8558Z" fill="#B4111A"/>
</svg>
