<svg width="35" height="26" viewBox="0 0 35 26" fill="none" xmlns="http://www.w3.org/2000/svg">
<path d="M34.6575 3.14021V13.6314C34.6575 13.6314 32.4122 14.0738 31.9496 14.1319C31.4885 14.19 30.0395 14.6579 28.9893 13.6485C27.3698 12.0963 21.6157 6.37393 21.6157 6.37393C21.6157 6.37393 20.6235 5.4004 19.0305 6.24176C17.5682 7.0125 15.4005 8.14204 14.4951 8.58188C12.7835 9.4929 11.3649 8.0475 11.3649 6.94649C11.3649 6.09247 11.8978 5.51284 12.6596 5.08657C14.7241 3.83501 19.0755 1.39251 20.8879 0.429544C21.9896 -0.156377 22.7833 -0.206585 24.2958 1.06756C26.1585 2.63414 27.8162 4.06213 27.8162 4.06213C27.8162 4.06213 28.3569 4.51337 29.2191 4.33163C31.3365 3.88395 34.6575 3.14021 34.6575 3.14021ZM11.7546 20.9165C12.0333 20.2006 11.9402 19.3998 11.4059 18.8505C10.9259 18.3591 10.225 18.2296 9.55669 18.3828C9.7436 17.7199 9.64039 17.0144 9.15775 16.5165C8.67623 16.0264 7.97668 15.8943 7.30845 16.0489C7.49397 15.387 7.39104 14.6816 6.90812 14.1852C6.15193 13.4095 4.84394 13.4428 3.98467 14.2619C3.12995 15.082 2.58242 16.568 3.34525 17.4427C4.10683 18.3129 4.9819 17.7834 5.64901 17.6314C5.46342 18.2933 4.90736 18.9089 5.59216 19.7752C6.27633 20.642 7.22874 20.1161 7.89654 19.9655C7.71033 20.6248 7.17853 21.3023 7.83704 22.1055C8.50148 22.9112 9.58976 22.482 10.3085 22.2587C10.0311 22.9719 9.43739 23.7407 10.2002 24.6022C10.9619 25.4699 12.722 25.0684 13.5818 24.2481C14.4392 23.4279 14.5215 22.1281 13.7674 21.35C13.2467 20.8162 12.4705 20.692 11.7546 20.9165ZM27.4424 15.4584C21.2273 9.24319 24.1506 12.1678 20.8059 8.81586C20.8059 8.81586 19.8007 7.81513 18.4758 8.39643C17.5458 8.80397 16.3485 9.3594 15.4475 9.78344C14.4575 10.3026 13.745 10.4633 13.4105 10.461C11.4965 10.4485 9.94374 8.91019 9.94374 6.99817C9.94374 5.7578 10.6022 4.67791 11.5844 4.06493C12.9654 3.10923 16.1443 1.41839 16.1443 1.41839C16.1443 1.41839 15.1759 0.191232 13.0545 0.191232C10.9336 0.191232 6.50261 3.09406 6.50261 3.09406C6.50261 3.09406 5.2456 3.8992 3.45371 3.17398L0 1.9713V13.9762C0 13.9762 0.986185 14.2617 1.8723 14.6236C2.07244 14.0529 2.39536 13.5258 2.84332 13.0905C4.3134 11.6903 6.75009 11.6757 8.08759 13.053C8.49051 13.4716 8.77168 13.971 8.91517 14.5231C9.4541 14.6895 9.94227 14.9841 10.3346 15.3883C10.7387 15.8042 11.0188 16.3064 11.1635 16.8557C11.7018 17.0222 12.1892 17.318 12.5829 17.7224C13.0261 18.1795 13.3214 18.7317 13.4593 19.3299C14.022 19.4938 14.5306 19.7988 14.9401 20.2175C15.7439 21.0431 16.0292 22.1633 15.8564 23.2438L15.8617 23.2463C15.8748 23.2635 16.3597 23.804 16.6621 24.1089C17.2546 24.702 18.2222 24.702 18.8166 24.1089C19.4071 23.516 19.4097 22.5503 18.8166 21.9544C18.7953 21.9332 16.6788 19.7193 16.8491 19.5476C17.0182 19.3771 19.7148 22.183 19.765 22.2344C20.3568 22.8263 21.3238 22.8263 21.9182 22.2344C22.5113 21.6414 22.51 20.6757 21.9182 20.0812C21.8891 20.0535 21.7677 19.9372 21.7227 19.8909C21.7227 19.8909 19.0491 17.5092 19.2526 17.3057C19.4586 17.101 22.7796 20.2002 22.785 20.2002C23.382 20.7378 24.3015 20.7338 24.8758 20.1592C25.4346 19.6005 25.4466 18.7167 24.9512 18.1211C24.9407 18.0894 22.4202 15.4554 22.6169 15.2572C22.8165 15.0565 25.3105 17.6245 25.3157 17.6298C25.9062 18.2216 26.8745 18.2216 27.4689 17.6298C28.0607 17.0379 28.0607 16.071 27.4689 15.4739C27.4609 15.4689 27.4503 15.4636 27.4424 15.4584Z" fill="white"/>
</svg>
