<svg width="14" height="18" viewBox="0 0 14 18" fill="none" xmlns="http://www.w3.org/2000/svg">
<path d="M13.0408 4.30336C12.5454 3.32674 11.8125 2.49032 10.9094 1.87098C10.0064 1.25164 8.96206 0.869268 7.87258 0.759012C7.37972 0.709561 6.88316 0.709561 6.39031 0.759012C5.30084 0.869341 4.25658 1.2517 3.35346 1.87097C2.45034 2.49023 1.71734 3.32654 1.22181 4.30304C0.598348 5.54899 0.357532 6.95158 0.52969 8.33414C0.701847 9.7167 1.27928 11.0174 2.18926 12.0724L6.62665 17.4674C6.68793 17.5419 6.76497 17.602 6.85222 17.6432C6.93947 17.6844 7.03478 17.7058 7.13128 17.7058C7.22778 17.7058 7.32308 17.6844 7.41034 17.6432C7.49759 17.602 7.57463 17.5419 7.63591 17.4674L12.0733 12.0724C12.9833 11.0175 13.5607 9.71682 13.7329 8.33431C13.905 6.9518 13.6642 5.54927 13.0408 4.30336ZM7.13128 9.86675C6.61448 9.86675 6.1093 9.7135 5.6796 9.42638C5.2499 9.13927 4.91499 8.73118 4.71722 8.25372C4.51945 7.77627 4.4677 7.25089 4.56853 6.74402C4.66935 6.23716 4.91821 5.77157 5.28364 5.40615C5.64907 5.04072 6.11465 4.79186 6.62152 4.69103C7.12838 4.59021 7.65376 4.64196 8.13122 4.83973C8.60867 5.0375 9.01676 5.37241 9.30388 5.8021C9.59099 6.2318 9.74424 6.73699 9.74424 7.25379C9.74343 7.94654 9.46787 8.61068 8.97802 9.10053C8.48817 9.59038 7.82403 9.86594 7.13128 9.86675Z" fill="#B4111A"/>
</svg>
