<svg width="21" height="18" viewBox="0 0 21 18" fill="none" xmlns="http://www.w3.org/2000/svg">
<path d="M19.0477 12.0437V6.00281L17.9097 6.38215V12.0437C17.202 12.2819 16.6907 12.9513 16.6907 13.7382V16.7855C16.6907 17.0997 16.9455 17.3545 17.2597 17.3545H19.6976C20.0118 17.3545 20.2666 17.0997 20.2666 16.7855V13.7382C20.2666 12.9513 19.7553 12.2819 19.0477 12.0437Z" fill="#B4111A"/>
<path d="M10.016 8.65359L4.50149 6.81542V10.6909C4.50149 10.8418 4.56147 10.9866 4.66817 11.0933C6.24096 12.6659 8.33196 13.532 10.5559 13.532C12.7799 13.532 14.8707 12.6659 16.4432 11.0932C16.5499 10.9865 16.6098 10.8418 16.6098 10.6909V6.81542L11.0954 8.65355C10.7185 8.77908 10.339 8.76121 10.016 8.65359Z" fill="#B4111A"/>
<path d="M10.5556 7.60314C10.6164 7.60314 10.6772 7.5934 10.7356 7.57394L19.8775 4.52664C20.1098 4.44918 20.2666 4.23175 20.2666 3.98685C20.2666 3.74195 20.1099 3.52452 19.8775 3.44706L10.7356 0.399767C10.6188 0.360885 10.4925 0.360885 10.3757 0.399767L1.23381 3.44706C1.00143 3.52448 0.844727 3.74192 0.844727 3.98685C0.844727 4.23179 1.00143 4.44918 1.23381 4.52664L10.3757 7.57394C10.4341 7.5934 10.4949 7.60314 10.5556 7.60314Z" fill="#B4111A"/>
</svg>
